<?xml version="1.0" encoding="iso-8859-1"?>
<!-- Generator: Adobe Illustrator 19.0.0, SVG Export Plug-In . SVG Version: 6.00 Build 0)  -->
<svg version="1.1" id="Capa_1" xmlns="http://www.w3.org/2000/svg" xmlns:xlink="http://www.w3.org/1999/xlink" x="0px" y="0px"
	 viewBox="0 0 512 512" style="enable-background:new 0 0 512 512;" xml:space="preserve">
<path style="fill:#E4EAF8;" d="M422.998,144.806H308.467H204.274H88.509c-7.166,0-13.028,5.862-13.028,13.028v276.992
	c0,7.166,5.862,13.028,13.028,13.028h334.488c7.166,0,13.028-5.862,13.028-13.028V157.834
	C436.026,150.669,430.163,144.806,422.998,144.806z"/>
<path style="fill:#D8DCE5;" d="M94.579,434.826V157.834c0-7.166,5.862-13.028,13.028-13.028H88.509
	c-7.166,0-13.028,5.862-13.028,13.028v276.992c0,7.166,5.862,13.028,13.028,13.028h19.097
	C100.441,447.854,94.579,441.992,94.579,434.826z"/>
<path style="fill:#5BDDFC;" d="M394.529,183.553h-86.063H204.274h-87.296c-1.781,0-3.225,1.444-3.225,3.225v219.99
	c0,1.781,1.444,3.225,3.225,3.225h277.551c1.781,0,3.225-1.444,3.225-3.225v-219.99C397.755,184.997,396.31,183.553,394.529,183.553
	z"/>
<g>
	<path style="fill:#00C3FF;" d="M132.49,406.768V186.779c0-1.781,1.444-3.225,3.225-3.225h-18.736c-1.781,0-3.225,1.444-3.225,3.225
		v219.99c0,1.781,1.444,3.225,3.225,3.225h18.736C133.934,409.993,132.49,408.549,132.49,406.768z"/>
	<path style="fill:#00C3FF;" d="M394.529,183.553h-86.063H204.274H149.51v41.515h248.244v-38.29
		C397.755,184.997,396.31,183.553,394.529,183.553z"/>
</g>
<path style="fill:#D8DCE5;" d="M457.75,504.999H53.758c-6.601,0-12.001-5.4-12.001-12.001v-33.144c0-6.601,5.4-12.001,12.001-12.001
	H457.75c6.601,0,12.001,5.4,12.001,12.001v33.144C469.751,499.599,464.351,504.999,457.75,504.999z"/>
<g>
	<path style="fill:#C3C8D1;" d="M458.508,486.262H52.999c-6.183,0-11.242-5.058-11.242-11.242v18.736
		c0,6.184,5.058,11.242,11.242,11.242h405.51c6.184,0,11.242-5.058,11.242-11.242V475.02
		C469.75,481.204,464.692,486.262,458.508,486.262z"/>
	<path style="fill:#C3C8D1;" d="M184.687,447.854v15.544c0,7.166,5.862,13.028,13.028,13.028h116.078
		c7.166,0,13.028-5.862,13.028-13.028v-15.544H184.687z"/>
</g>
<path style="fill:#B0B3B7;" d="M204.245,463.398v-15.544h-19.559v15.544c0,7.166,5.862,13.028,13.028,13.028h19.559
	C210.108,476.426,204.245,470.564,204.245,463.398z"/>
<path style="fill:#FF5050;" d="M157.58,183.553h-40.601c-1.781,0-3.225,1.444-3.225,3.225v38.29h43.826V183.553z"/>
<path style="fill:#ED3A3A;" d="M135.715,183.552h-18.736c-1.781,0-3.225,1.444-3.225,3.225v38.29h18.736v-38.29
	C132.49,184.997,133.934,183.552,135.715,183.552z"/>
<g>
	<path style="fill:#FFC850;" d="M307.467,183.664v86.625l46.39,38.936c3.317,2.784,8.375,0.426,8.375-3.904l0,0
		c0-36.695-12.991-72.206-36.671-100.237L307.467,183.664z"/>
	<path style="fill:#FFC850;" d="M205.275,183.664v86.625l-46.39,38.936c-3.317,2.784-8.375,0.426-8.375-3.904l0,0
		c0-36.695,12.991-72.206,36.671-100.237L205.275,183.664z"/>
</g>
<g>
	<path style="fill:#F9B428;" d="M327.468,267.938v-60.545c-0.629-0.775-1.263-1.546-1.908-2.31l-18.093-21.42v86.625l46.39,38.936
		c3.317,2.784,8.375,0.426,8.375-3.904l0,0c0-1.989-0.046-3.974-0.122-5.956l-32.841-27.564
		C328.128,270.843,327.468,269.429,327.468,267.938z"/>
	<path style="fill:#F9B428;" d="M205.275,207.394v-23.73l-18.093,21.42c-23.68,28.032-36.671,63.542-36.671,100.237l0,0
		c0,4.33,5.058,6.689,8.375,3.904l11.748-9.861C171.921,265.794,184.06,233.512,205.275,207.394z"/>
</g>
<path style="fill:#707487;" d="M215.211,277.101v24.329c0,4.399,3.599,7.999,7.999,7.999c11.784,0,21.359,0,33.161,0
	c11.828,0,20.792,0,33.161,0c4.399,0,7.999-3.599,7.999-7.999v-24.329C287.268,277.101,223.079,277.101,215.211,277.101z"/>
<path style="fill:#5B5D6E;" d="M235.213,301.43v-24.329h-20.002v24.329c0,4.399,3.599,7.999,7.999,7.999c7.33,0,12.995,0,20.002,0
	C238.812,309.428,235.213,305.829,235.213,301.43z"/>
<path style="fill:#FF5050;" d="M260.188,10.253c-1.651-3.015-5.982-3.015-7.634,0l-48.28,88.163h104.193L260.188,10.253z"/>
<path style="fill:#ED3A3A;" d="M260.188,10.253c-1.651-3.015-5.982-3.015-7.634,0l-48.28,88.163h20.002l42.095-76.87L260.188,10.253
	z"/>
<path style="fill:#E4EAF8;" d="M204.274,273.5c0,2.541,2.06,4.6,4.6,4.6c9.135,0,83.276,0,94.566,0c2.775,0,5.025-2.25,5.025-5.025
	V98.416H204.274V273.5z"/>
<path style="fill:#D8DCE5;" d="M224.276,273.5V98.416h-20.002V273.5c0,2.541,2.06,4.6,4.6,4.6c11.504,0,12.773,0,20.002,0
	C226.335,278.101,224.276,276.041,224.276,273.5z"/>
<circle style="fill:#707487;" cx="256.371" cy="150.562" r="26.122"/>
<path style="fill:#5B5D6E;" d="M250.254,150.565c0-10.881,6.657-20.205,16.117-24.13c-3.081-1.278-6.458-1.987-10.001-1.987
	c-14.424,0-26.117,11.693-26.117,26.118c0,14.424,11.693,26.118,26.117,26.118c3.543,0,6.921-0.709,10.001-1.987
	C256.911,170.769,250.254,161.446,250.254,150.565z"/>
<path d="M256.618,183.683c18.536,0,33.618-15.081,33.618-33.618c0-18.537-15.081-33.619-33.618-33.619
	c-18.537,0-33.619,15.081-33.619,33.619C222.999,168.602,238.08,183.683,256.618,183.683z M256.618,131.447
	c10.266,0,18.616,8.353,18.616,18.617s-8.352,18.616-18.616,18.616c-10.265,0-18.617-8.352-18.617-18.616
	S246.352,131.447,256.618,131.447z"/>
<path d="M220.179,333.201c-4.143,0-7.501,3.357-7.501,7.501v37.455c0,4.143,3.357,7.501,7.501,7.501s7.501-3.357,7.501-7.501
	v-37.455C227.679,336.558,224.322,333.201,220.179,333.201z"/>
<path d="M256.618,333.201c-4.143,0-7.501,3.357-7.501,7.501v37.455c0,4.143,3.357,7.501,7.501,7.501
	c4.143,0,7.501-3.357,7.501-7.501v-37.455C264.118,336.558,260.761,333.201,256.618,333.201z"/>
<path d="M293.055,333.201c-4.143,0-7.501,3.357-7.501,7.501v37.455c0,4.143,3.357,7.501,7.501,7.501
	c4.143,0,7.501-3.357,7.501-7.501v-37.455C300.556,336.558,297.198,333.201,293.055,333.201z"/>
<path d="M457.996,439.853h-15.001c0.494-1.761,0.777-3.61,0.777-5.527V317.431c0-4.143-3.357-7.501-7.501-7.501
	c-4.143,0-7.501,3.357-7.501,7.501v116.895c0,3.048-2.479,5.527-5.526,5.527c-13.324,0-327.227,0-334.489,0
	c-3.047,0-5.526-2.479-5.526-5.527V157.334c0-3.048,2.479-5.527,5.526-5.527H197.02v23.746h-39.193h-40.602
	c-0.37,0-0.735,0.019-1.095,0.055c-5.401,0.55-9.631,5.125-9.631,10.67v38.29v181.7c0,5.914,4.812,10.727,10.726,10.727h277.551
	c5.913,0,10.726-4.812,10.726-10.727V224.569v-38.29c0-5.544-4.229-10.12-9.631-10.67c-0.36-0.037-0.725-0.055-1.095-0.055h-78.562
	v-23.746h107.03c3.047,0,5.526,2.479,5.526,5.527v125.094c0,4.143,3.357,7.501,7.501,7.501c4.143,0,7.501-3.357,7.501-7.501V157.334
	c0-11.319-9.209-20.529-20.528-20.529H316.214v-38.89c0-1.296-0.37-2.598-0.923-3.605L267.013,6.15
	c-4.49-8.201-16.301-8.201-20.792,0l-48.278,88.16c-0.57,1.037-0.923,2.343-0.923,3.605v38.89H88.755
	c-11.319,0-20.528,9.21-20.528,20.529v276.992c0,1.917,0.284,3.766,0.777,5.527H54.004c-10.753,0-19.502,8.749-19.502,19.502v33.144
	c0,10.753,8.749,19.502,19.502,19.502h184.494c4.143,0,7.501-3.357,7.501-7.501c0-4.143-3.357-7.501-7.501-7.501H54.004
	c-2.439,0-4.5-2.061-4.5-4.5v-33.144c0-2.439,2.061-4.5,4.5-4.5c5.372,0,119.017,0,123.429,0v8.044
	c0,11.319,9.21,20.529,20.529,20.529h116.077c11.319,0,20.529-9.21,20.529-20.529v-8.044c4.512,0,118.336,0,123.429,0
	c2.439,0,4.5,2.061,4.5,4.5v33.144c0,2.439-2.061,4.5-4.5,4.5H273.502c-4.143,0-7.501,3.357-7.501,7.501
	c0,4.143,3.357,7.501,7.501,7.501h184.494c10.753,0,19.502-8.749,19.502-19.502v-33.144
	C477.498,448.602,468.749,439.853,457.996,439.853z M290.275,301.93c0,0.256-0.242,0.498-0.498,0.498h-25.659v-17.326h26.157V301.93
	z M223.457,302.428c-0.256,0-0.498-0.242-0.498-0.498v-16.828h26.158v17.326L223.457,302.428L223.457,302.428z M167.932,217.068
	h-2.604v-26.514h23.133C181.468,198.832,175.056,205.923,167.932,217.068z M185.137,218.433c4.078-5.667,6.926-8.896,11.884-14.766
	c0,6.18,0,56.382,0,62.625l-39.67,33.298C158.385,270.5,168.046,242.17,185.137,218.433z M316.214,203.668l4.862,5.756
	c20.704,24.504,33.598,56.166,34.808,90.165l-39.67-33.298C316.214,260.054,316.214,209.845,316.214,203.668z M301.213,270.1
	c-13.44,0-21.526,0-37.095,0v-68.609c0-4.143-3.357-7.501-7.501-7.501c-4.143,0-7.501,3.357-7.501,7.501V270.1
	c-15.546,0-23.676,0-37.096,0c0-9.334,0-161.297,0-164.684h89.192C301.213,122.75,301.213,251.112,301.213,270.1z M121.501,190.554
	h28.825v26.514h-28.825V190.554z M121.501,401.993V232.069h36.326h1.603c-11.204,22.449-17.174,47.36-17.174,72.753
	c0,10.615,12.411,16.604,20.697,9.65l38.382-32.216c1.933,1.624,4.309,2.574,6.623,2.789v16.884c0,8.547,6.953,15.499,15.499,15.499
	h25.667c0.072,4.08,3.396,7.367,7.494,7.367c4.097,0,7.422-3.286,7.494-7.367h25.666h0.001c8.546,0,15.498-6.954,15.498-15.499V285
	c2.405-0.305,4.704-1.351,6.487-2.857l38.517,32.329c8.284,6.95,20.697,0.964,20.697-9.65c0-25.394-5.969-50.305-17.173-72.753
	h36.696v169.924L121.501,401.993L121.501,401.993z M390.5,217.068h-45.198c-7.112-11.124-13.52-18.215-20.53-26.514h65.726
	L390.5,217.068L390.5,217.068z M256.617,18.398l39.438,72.017H217.18L256.617,18.398z M319.566,462.898
	c0,3.048-2.479,5.527-5.527,5.527H197.962c-3.048,0-5.527-2.479-5.527-5.527v-8.044h127.133v8.044H319.566z"/>
<g>
</g>
<g>
</g>
<g>
</g>
<g>
</g>
<g>
</g>
<g>
</g>
<g>
</g>
<g>
</g>
<g>
</g>
<g>
</g>
<g>
</g>
<g>
</g>
<g>
</g>
<g>
</g>
<g>
</g>
</svg>
